@startuml
title 基于GitHub的实验管理平台--类图
class users {
    <b>user_id</b> （用户ID）
    name （用户真实姓名）
    github_username （用户GitHub账号）
    update_date （用户GitHub账号修改日期）
    password （用户密码）
    disable （用户是否禁用）
}

class Administrator{
    <b>admin_id<b>(管理员(老师)工资号)
    power(权限级别(只有本班老师才有评分权力))
}
class teachers{
    <b>teacher_id</b> （老师工号）
    department （老师所属部门）
}
class students{
    <b>student_id</b> （学号）
    class （班级）
    result_sum（成绩汇总）
    web_sum （网站正确与否汇总）
}
class department{
    <b>department_id<b>(院系ID)
    name(院名)
    dean(院长)
}
users <|- students
Administrator <|-- teachers
class grades {
    <b>student_id</b> （学号）
    <b>test_id</b> （实验编号）
    result （分数）
    memo （评价）
    update_date （评改日期）
}

class tests {
    <b>test_id</b> （实验编号）
    title (实验名称)
    demand(实验要求)
}
class course{
     <b>course_id</b>(课程ID)
     name(课程名称)
     techer(科任老师)
}
class terms{
    <b>terms<b> (学期)
    year(学年)
}
course "1" -- "1"  terms
students "1" -- "1"  course
teachers "1" -- "1"  course
students "1" -- "n"  grades
teachers "1" -- "n"  grades
students "n" -- "1"  department
teachers "n" -- "n"  department
tests "1" -- "n"  grades
Administrator "1" -- "n"  users


@enduml